<?xml version="1.0" ?><!DOCTYPE svg  PUBLIC '-//W3C//DTD SVG 1.1//EN'  'http://www.w3.org/Graphics/SVG/1.1/DTD/svg11.dtd'><svg xmlns="http://www.w3.org/2000/svg" xmlns:xlink="http://www.w3.org/1999/xlink" xmlns:serif="http://www.serif.com/" width="100%" height="100%" viewBox="0 0 64 64" version="1.1" xml:space="preserve" style="fill-rule:evenodd;clip-rule:evenodd;stroke-linejoin:round;stroke-miterlimit:2;"><g><path d="M30,7L29,7C27.895,7 27,7.895 27,9L27,13L19.434,13C14.545,13 9.856,14.942 6.399,18.399C2.942,21.856 1,26.545 1,31.434L1,55.472C1,57.469 1.793,59.383 3.205,60.795C4.617,62.207 6.531,63 8.528,63L8.529,63C11.435,63 14.061,61.268 15.206,58.597L20.536,46.158C22.137,42.422 25.811,40 29.875,40L34.071,40C38.124,40 41.79,42.409 43.397,46.131C45.215,50.338 47.404,55.404 48.79,58.612C49.94,61.275 52.564,63 55.465,63L55.466,63C59.627,63 63,59.627 63,55.466L63,31.434C63,26.545 61.058,21.856 57.601,18.399C54.144,14.942 49.455,13 44.566,13L37,13L37,9C37,7.895 36.105,7 35,7L34,7L34,3C34,1.896 33.104,1 32,1C30.896,1 30,1.896 30,3L30,7ZM44,33L44,36C44,37.104 44.896,38 46,38C47.104,38 48,37.104 48,36L48,33C48,31.896 47.104,31 46,31C44.896,31 44,31.896 44,33ZM15,27L10,27C8.896,27 8,27.896 8,29C8,30.104 8.896,31 10,31L15,31L15,36C15,37.104 15.896,38 17,38C18.104,38 19,37.104 19,36L19,31L24,31C25.104,31 26,30.104 26,29C26,27.896 25.104,27 24,27L19,27L19,22C19,20.896 18.104,20 17,20C15.896,20 15,20.896 15,22L15,27ZM50,31L53,31C54.104,31 55,30.104 55,29C55,27.896 54.104,27 53,27L50,27C48.896,27 48,27.896 48,29C48,30.104 48.896,31 50,31ZM39,31L42,31C43.104,31 44,30.104 44,29C44,27.896 43.104,27 42,27L39,27C37.896,27 37,27.896 37,29C37,30.104 37.896,31 39,31ZM44,22L44,25C44,26.104 44.896,27 46,27C47.104,27 48,26.104 48,25L48,22C48,20.896 47.104,20 46,20C44.896,20 44,20.896 44,22ZM31,13L33,13L33,11L31,11L31,13Z"/></g></svg>